<?xml version="1.0" standalone="no"?>
<!DOCTYPE svg PUBLIC "-//W3C//DTD SVG 20010904//EN"
 "http://www.w3.org/TR/2001/REC-SVG-20010904/DTD/svg10.dtd">
<svg version="1.0" xmlns="http://www.w3.org/2000/svg"
 width="2000.000000pt" height="2000.000000pt" viewBox="0 0 2000.000000 2000.000000"
 preserveAspectRatio="xMidYMid meet">
<metadata>
Created by potrace 1.11, written by Peter Selinger 2001-2013
</metadata>
<g transform="translate(0.000000,2000.000000) scale(0.100000,-0.100000)"
fill="#000000" stroke="none">
<path d="M9724 19319 c-608 -310 -796 -421 -1099 -648 -141 -105 -482 -379
-595 -477 -167 -144 -400 -395 -487 -524 -26 -39 -42 -50 -114 -79 -196 -79
-412 -201 -589 -334 -201 -149 -351 -292 -623 -590 -206 -225 -426 -530 -474
-655 -108 -286 -175 -554 -228 -912 -9 -63 -24 -153 -32 -200 -27 -147 -22
-525 11 -804 24 -205 33 -250 86 -435 32 -113 64 -235 71 -271 12 -65 11 -67
-24 -157 -60 -150 -120 -360 -259 -907 -18 -71 -38 -131 -44 -133 -6 -2 -30
11 -53 28 -37 26 -52 49 -95 142 -293 640 -506 967 -688 1056 -35 17 -82 32
-105 34 -24 1 -43 5 -43 8 0 4 30 69 66 145 152 320 269 609 359 884 65 201
158 557 176 677 12 78 11 85 -14 160 -90 275 -96 535 -21 872 25 110 25 117
11 175 -9 34 -18 73 -21 87 -9 43 -107 134 -183 170 -60 29 -78 33 -154 34
-69 0 -91 -4 -106 -18 -11 -9 -23 -14 -26 -11 -15 15 -43 -28 -102 -152 -35
-73 -82 -160 -106 -195 -62 -91 -167 -194 -215 -209 -21 -7 -59 -23 -83 -36
-24 -13 -55 -24 -70 -24 -36 0 -140 -51 -175 -86 -68 -68 -164 -250 -729
-1384 -672 -1350 -755 -1523 -924 -1930 -183 -441 -250 -636 -259 -756 -7
-104 2 -138 65 -242 123 -205 272 -318 541 -410 203 -69 329 -96 460 -96 131
0 183 15 286 83 142 92 208 192 414 622 85 178 191 398 235 488 l81 164 -4
-199 c-6 -292 24 -472 137 -811 137 -409 279 -686 465 -906 34 -40 76 -91 95
-115 43 -56 138 -123 245 -173 55 -26 86 -46 86 -56 0 -9 -43 -231 -95 -493
-52 -263 -108 -553 -124 -646 -17 -93 -51 -275 -76 -404 -78 -400 -115 -691
-185 -1440 -60 -638 -97 -937 -185 -1480 -19 -118 -67 -411 -106 -650 -82
-508 -92 -640 -87 -1173 l3 -322 33 -95 c103 -296 280 -549 520 -745 2 -2 -6
-21 -17 -43 -37 -72 -55 -217 -55 -432 1 -179 3 -203 27 -295 46 -171 135
-325 188 -325 9 0 22 -7 29 -15 21 -25 124 -84 196 -111 277 -106 734 -186
1069 -188 199 -1 223 5 265 64 47 67 64 137 65 268 0 67 0 122 1 122 0 0 40
-9 90 -20 49 -11 107 -20 128 -20 21 0 112 -14 202 -30 465 -86 1306 -210
1425 -210 47 0 180 -7 295 -16 161 -12 292 -15 569 -11 354 5 513 17 715 52
115 20 110 21 110 -27 1 -118 60 -259 140 -331 63 -57 131 -83 280 -107 63
-11 129 -24 145 -29 82 -27 353 -51 568 -51 243 0 459 45 594 123 68 40 74 46
102 109 27 59 32 85 41 215 27 397 -4 722 -86 908 -20 44 -38 87 -41 96 -3 12
38 53 139 140 231 198 323 296 552 586 l57 73 64 -128 c212 -424 499 -696
1065 -1012 260 -145 339 -182 644 -302 136 -53 382 -82 706 -81 254 0 395 11
540 43 47 10 137 26 200 35 263 38 509 119 815 270 105 52 232 112 284 135
134 59 352 188 481 286 30 23 66 44 80 47 62 15 204 115 456 323 94 77 242
198 330 268 446 357 476 389 749 807 219 332 306 532 325 743 37 410 37 441
-11 629 -11 43 -28 119 -39 170 -35 172 -83 264 -225 427 -136 156 -318 301
-457 365 -60 27 -234 69 -374 90 -218 33 -550 28 -779 -11 -310 -52 -700 -192
-873 -312 -15 -11 -54 -33 -88 -51 -77 -41 -132 -86 -273 -224 -188 -186 -279
-307 -390 -526 -59 -116 -234 -386 -315 -486 -72 -90 -227 -255 -460 -492
-230 -234 -268 -265 -400 -325 -101 -47 -255 -79 -467 -98 l-126 -11 -109 54
c-119 60 -189 108 -273 190 -211 204 -331 427 -548 1017 -108 291 -102 263
-92 440 14 257 21 1128 11 1390 -5 135 -7 251 -4 258 3 8 45 -26 111 -90 183
-180 254 -222 366 -221 84 0 175 31 222 76 40 37 108 173 128 252 34 139 43
322 25 485 -5 47 -12 112 -15 145 l-6 60 71 78 c39 42 75 77 78 77 4 0 20 -36
36 -80 38 -109 92 -188 195 -290 191 -189 276 -247 391 -271 66 -13 218 -71
277 -106 145 -85 231 -215 274 -418 37 -171 79 -246 146 -260 30 -6 36 -2 80
46 27 29 88 96 136 148 49 53 128 143 175 201 127 154 192 219 342 350 195
169 259 241 314 350 47 93 54 129 36 184 -5 17 -21 72 -35 121 -15 50 -50 134
-77 187 -43 82 -63 108 -121 158 -38 34 -88 70 -111 82 -22 11 -51 31 -63 44
-12 13 -29 24 -37 24 -26 0 -207 60 -260 86 -28 13 -55 24 -61 24 -19 0 -159
101 -254 183 -102 89 -145 148 -246 344 -85 164 -90 166 -166 73 -82 -101
-432 -480 -569 -615 -67 -66 -137 -142 -155 -170 -51 -75 -425 -445 -425 -420
0 65 -22 415 -36 555 -30 322 -89 620 -159 805 -14 39 -35 96 -47 128 l-20 57
51 114 c54 121 123 316 171 481 43 147 81 325 160 750 99 529 140 707 249
1080 l49 170 18 -45 c50 -126 158 -310 229 -389 18 -20 40 -51 49 -68 20 -40
95 -97 201 -155 l80 -43 120 0 c171 0 199 10 303 109 46 45 113 117 147 161
92 119 338 491 369 560 43 92 95 271 107 365 6 47 22 126 35 175 27 106 48
354 41 470 -3 44 -10 184 -16 310 -6 127 -18 295 -25 375 -19 193 -45 411 -51
419 -2 4 -13 65 -25 136 -45 282 -187 866 -235 970 -8 17 -23 66 -35 110 -33
125 -79 261 -122 365 -47 112 -105 229 -123 250 -7 8 -39 65 -70 125 -146 280
-499 820 -595 910 -17 17 -69 80 -115 140 -86 115 -232 263 -371 378 -45 37
-107 98 -138 136 -97 119 -181 187 -351 286 -55 32 -136 84 -180 116 -120 87
-544 335 -638 373 -45 19 -143 55 -217 81 -74 26 -171 62 -215 81 -144 60
-383 112 -610 133 -55 5 -165 21 -245 34 -250 44 -404 58 -695 64 -232 4 -295
2 -370 -11 -49 -9 -145 -19 -212 -23 -143 -7 -136 -14 -98 104 47 143 47 141
36 162 -15 28 -77 61 -115 61 -21 0 -83 -26 -172 -71z m3560 -1058 c33 -26
101 -71 149 -100 48 -30 90 -58 93 -63 3 -5 10 -55 15 -111 5 -56 11 -114 13
-129 5 -25 2 -28 -77 -54 -45 -15 -122 -42 -171 -61 -49 -18 -91 -32 -93 -30
-2 2 6 57 18 123 30 166 29 295 -3 401 -14 45 -20 79 -15 76 5 -3 37 -27 71
-52z m-3069 -366 c285 -190 707 -509 1009 -764 208 -175 345 -299 606 -550
750 -720 937 -910 1078 -1096 12 -16 60 -79 106 -140 82 -109 241 -341 346
-505 195 -307 363 -629 478 -920 122 -307 124 -314 113 -343 -6 -16 -11 -52
-11 -81 0 -29 -5 -79 -10 -112 -6 -32 -13 -74 -16 -92 -5 -31 -8 -26 -63 85
-70 142 -263 437 -541 828 -113 160 -255 362 -315 450 -698 1028 -1018 1372
-2055 2206 -435 351 -697 540 -929 671 l-85 47 -1 103 c-1 57 -5 165 -10 240
l-8 137 66 -23 c42 -15 129 -65 242 -141z m3266 -758 c14 -17 67 -83 118 -145
56 -69 87 -114 79 -116 -178 -52 -384 -151 -608 -291 -450 -283 -472 -298
-591 -413 l-57 -54 -188 182 c-104 100 -190 188 -192 195 -4 16 161 141 289
220 48 30 159 90 247 134 284 142 484 220 698 271 67 16 132 34 145 39 34 14
31 14 60 -22z m1116 -502 c75 -14 154 -25 175 -25 36 0 41 -4 74 -56 40 -62
158 -284 152 -284 -3 0 -56 28 -119 61 -235 127 -461 222 -582 244 -20 4 -37
10 -37 14 1 15 116 66 157 69 24 1 105 -9 180 -23z m-9914 -53 c48 -21 212
-174 200 -186 -12 -12 -130 -6 -188 9 -78 21 -122 51 -185 126 -40 48 -48 64
-38 71 23 16 159 3 211 -20z m-178 -160 c58 -68 159 -112 260 -112 40 0 68 6
84 16 22 16 23 16 17 -2 -22 -72 -66 -321 -76 -428 -20 -210 5 -419 71 -602
24 -66 30 -94 25 -125 -6 -38 -37 -126 -231 -664 -142 -391 -255 -649 -575
-1305 -361 -741 -586 -1223 -695 -1485 -32 -77 -66 -151 -75 -165 -10 -14 -38
-59 -64 -100 -77 -127 -116 -161 -227 -202 -124 -44 -209 -41 -427 16 -193 52
-278 82 -380 137 -144 77 -257 183 -310 289 -25 52 -27 63 -26 185 l0 131 63
159 c193 488 401 941 816 1780 292 591 428 872 635 1320 51 110 135 283 186
385 82 162 99 189 137 216 78 56 131 82 204 102 90 25 160 71 244 158 105 110
161 203 244 409 l17 40 27 -60 c15 -33 40 -75 56 -93z m3180 -526 c184 -70
300 -198 328 -361 9 -55 8 -71 -14 -146 -39 -136 -110 -236 -247 -352 -194
-162 -369 -247 -509 -247 -125 0 -229 78 -307 230 -51 99 -66 161 -66 269 0
138 46 255 153 387 102 127 226 215 327 234 30 6 56 13 59 16 3 3 51 4 106 1
76 -3 117 -11 170 -31z m3574 -1271 c82 -20 173 -68 213 -114 66 -75 117 -230
118 -356 0 -169 -96 -341 -283 -503 -150 -131 -290 -209 -467 -262 -95 -29
-113 -31 -189 -25 -47 3 -103 13 -125 21 -23 8 -47 16 -53 18 -39 7 -123 123
-171 231 -46 106 -55 154 -50 263 6 117 42 218 117 332 146 222 316 353 506
394 94 19 302 20 384 1z m-5199 -4970 c48 -35 50 -39 50 -86 0 -39 5 -55 29
-82 53 -60 113 -65 199 -17 l39 22 189 -61 c104 -33 202 -62 217 -66 l28 -6
-18 -30 c-56 -94 -177 -198 -300 -257 -70 -33 -87 -37 -175 -40 -108 -4 -210
14 -295 53 -76 34 -164 129 -213 228 -80 163 -81 319 -4 505 l27 63 88 -95
c49 -52 112 -111 139 -131z m250 -5 c28 -28 26 -75 -5 -105 -15 -16 -36 -25
-55 -25 -65 0 -93 77 -45 125 30 31 77 33 105 5z m8126 -976 c21 -66 65 -143
141 -241 77 -102 149 -155 247 -182 61 -16 106 9 206 120 47 51 121 131 164
176 l79 83 31 -20 c64 -42 174 -94 256 -121 98 -32 103 -45 42 -94 -20 -16
-94 -87 -164 -158 -96 -97 -131 -138 -140 -168 -14 -49 -9 -55 80 -92 119 -51
207 -126 403 -343 l117 -131 -58 -49 c-32 -27 -105 -93 -164 -148 l-106 -99
-59 64 c-69 76 -164 145 -359 264 -110 66 -149 85 -168 81 -13 -4 -70 -61
-135 -135 l-112 -130 -81 43 c-85 45 -175 79 -239 91 -39 8 -54 19 -37 30 5 3
41 47 79 98 37 51 96 124 130 162 70 79 93 117 85 138 -3 8 -65 62 -138 120
-146 116 -216 191 -295 311 -59 91 -67 115 -51 148 12 23 209 234 222 237 3 0
14 -24 24 -55z m-2050 -801 c87 -165 180 -322 266 -450 l68 -102 -22 -14 c-13
-8 -52 -32 -88 -54 -212 -131 -484 -229 -965 -348 -304 -75 -461 -97 -705 -97
-186 -1 -199 0 -275 26 -124 42 -123 43 30 72 69 13 124 33 233 85 330 159
603 341 969 646 100 84 195 159 210 167 15 8 69 55 118 104 50 50 91 91 92 91
1 1 32 -56 69 -126z m341 -1792 l-6 -450 -115 -144 c-142 -179 -226 -269 -339
-364 -154 -128 -324 -234 -497 -309 -273 -117 -477 -167 -695 -167 -145 -1
-205 10 -284 52 l-34 18 54 35 c30 19 88 54 129 78 94 54 276 181 400 281 158
126 307 283 512 540 117 146 297 337 484 514 93 88 194 187 224 219 52 56 155
146 167 146 4 0 4 -202 0 -449z m4192 106 c5 -13 16 -28 24 -35 8 -7 26 -38
40 -70 94 -208 96 -661 7 -1103 -42 -205 -84 -320 -157 -431 l-25 -38 -28 78
c-78 223 -214 512 -325 692 -82 131 -218 309 -315 410 l-81 85 77 71 c115 106
306 204 609 310 83 29 153 53 158 53 4 1 11 -9 16 -22z m-1451 -1463 c44 -103
97 -299 117 -428 28 -189 16 -377 -41 -616 -28 -123 -104 -360 -114 -360 -4 0
-10 31 -14 69 -20 222 -213 667 -376 869 l-51 63 94 98 c126 131 240 263 290
334 22 32 45 56 50 54 6 -2 26 -39 45 -83z"/>
<path d="M3545 14461 c-42 -19 -69 -59 -59 -86 5 -11 -1 -15 -18 -15 -30 0
-78 -42 -78 -68 0 -11 9 -31 20 -45 16 -20 18 -31 10 -51 -8 -21 -5 -31 16
-56 30 -34 76 -41 106 -13 17 15 18 15 18 -4 0 -31 -36 -141 -70 -217 l-30
-66 -31 34 c-17 20 -45 45 -64 56 -33 20 -33 21 -18 52 22 43 8 78 -39 101
-32 15 -44 17 -72 7 -52 -17 -69 -42 -64 -92 4 -35 0 -47 -19 -65 -15 -15 -23
-33 -23 -57 0 -28 8 -41 42 -70 67 -58 143 -42 178 36 l18 41 31 -43 c17 -24
31 -47 31 -51 0 -22 -174 -299 -188 -299 -4 0 -20 20 -35 45 -16 25 -33 45
-37 45 -5 0 -3 13 2 28 17 43 3 80 -37 99 -96 46 -221 -76 -137 -135 42 -30
66 -34 110 -19 l40 14 31 -63 c17 -34 31 -65 31 -69 0 -3 -60 -90 -134 -193
-221 -310 -313 -456 -330 -524 -6 -28 1 -58 15 -58 21 0 81 68 135 152 52 84
98 150 300 438 33 47 80 117 104 157 39 63 52 75 101 97 45 21 65 24 106 19
46 -5 54 -3 77 20 31 31 33 56 6 85 -29 31 -64 28 -103 -9 -31 -30 -87 -65
-87 -54 0 2 14 33 31 68 l32 64 80 13 c44 7 104 25 133 40 45 22 55 24 67 13
7 -8 29 -16 48 -19 47 -8 89 25 89 70 0 21 8 40 21 52 50 45 43 103 -15 130
-43 21 -95 12 -126 -21 -18 -19 -34 -25 -65 -25 -28 0 -52 -7 -71 -22 -53 -41
-57 -61 -19 -106 14 -17 25 -32 25 -35 0 -4 -17 -11 -37 -16 -39 -11 -93 -15
-93 -6 0 2 14 39 31 81 37 95 69 224 69 283 0 37 2 42 18 36 50 -20 80 -17
106 8 28 28 35 74 14 95 -8 8 -8 15 2 27 17 20 1 57 -35 81 -14 9 -25 25 -25
36 0 26 -44 68 -72 68 -13 0 -41 -9 -63 -19z m79 -27 c22 -9 20 -51 -3 -64
-11 -5 -36 -10 -55 -10 -32 0 -36 3 -36 25 0 35 55 64 94 49z m85 -98 c8 -10
8 -16 -2 -25 -11 -8 -18 -7 -31 7 -16 19 -13 32 9 32 7 0 18 -6 24 -14z m-206
-27 c26 -42 -24 -66 -59 -28 -18 20 -18 21 1 35 24 17 44 15 58 -7z m139 -6
c18 -21 10 -61 -14 -77 -43 -27 -110 40 -78 78 17 21 73 20 92 -1z m74 -87
c-4 -16 -16 -28 -32 -32 -43 -11 -49 10 -13 45 35 36 56 30 45 -13z m-175 -2
c19 -17 15 -42 -9 -61 -21 -17 -37 -16 -56 3 -23 22 -20 53 7 64 32 13 38 12
58 -6z m-230 -164 c27 -15 24 -46 -7 -66 -23 -16 -28 -16 -60 -1 -38 19 -42
32 -17 59 18 20 54 23 84 8z m569 -98 c25 -21 19 -44 -16 -60 -31 -15 -70 0
-79 29 -14 44 52 65 95 31z m-590 -50 c31 -25 21 -65 -19 -82 -44 -18 -91 15
-91 65 0 33 75 45 110 17z m457 -8 c17 -26 16 -27 -11 -50 -15 -13 -35 -24
-44 -24 -26 0 -62 29 -62 50 0 24 37 50 72 50 19 0 33 -8 45 -26z m101 -59 c1
-1 -2 -14 -7 -29 -11 -28 -38 -34 -71 -16 -19 10 -19 11 2 35 16 19 27 23 47
18 14 -3 27 -7 29 -8z m-695 -166 c26 -41 -19 -89 -82 -89 -32 0 -64 30 -59
57 8 42 119 68 141 32z"/>
</g>
</svg>
